# xmcd
# Track frame offsets:
# 150
# 16017
# 28271
# 42623
# 55673
# 67396
# 79409
# 98646
# 110034
# 120979
# 135647
# 150442
# 165374
# 177011
# 191365
# 202557
# 216486
# 231395
# 250226
# 259520
# 275571
# 285986
# 298467
# 309857
# 329872
# 340467
#
# Disc length: 4754 seconds
# Revision: 0
# Processed by: cddbd v1.5.2PL0 Copyright (c) Steve Scherf et al.
# Submitted via: VisiTrax 2.11.2.271 - For more info visit www.synapsa.com
#
DISCID=8112901a
DTITLE=Various Artist - 101 Country Classics [CD1)
DYEAR=2011
DGENRE=
TTITLE0=Kenny Rogers - The Gambler
TTITLE1=Dolly Parton - Jolene
TTITLE2=Glen Campbell - Rinestone Cowboy
TTITLE3=Lynn Anderson - Rose Garden
TTITLE4=Willie Nelson - On The Road Again
TTITLE5=Tammy Wynette - Stand By Your Man
TTITLE6=Kris Kristofferson - Me And Bobby McGee
TTITLE7=Crystal Gayle - Don't Make My Brown Eyes Blue
TTITLE8=Waylon Jennings - Dreaming My Dreams With You
TTITLE9=Anne Murray - Could I Have This Dance
TTITLE10=Bellamy Brothers - Let Your Love Grow
TTITLE11=Jeannie C. Riley - Harper Valley PTA
TTITLE12=Don Gibson - Sea Of Heartbreak
TTITLE13=Helen Reddy - Delta Dawn
TTITLE14=Elvis Presley - I Cant Stop Loving You
TTITLE15=Bobbie Gentry - Raindrops Keep Falling On My Head
TTITLE16=George Jones - He Stopped Loving Her Today
TTITLE17=Juice Newton - Angel Of The Morning
TTITLE18=Charley Pride - Kiss An Angel Good Mornin
TTITLE19=Billie Jo Spears - Blanket On The Ground
TTITLE20=Ricky Nelson - Hello Mary Lou (Goodbye Heart)
TTITLE21=Johnny Cash - Jackson
TTITLE22=Johnny Horton - The Battle Of New Orleans
TTITLE23=Marty Robbins - El Paso
TTITLE24=Jim Reeves - Hell Have To Go
TTITLE25=The Nitty Gritty Dirt Band - Mr. Bojangles
EXTD=
EXTT0=
EXTT1=
EXTT2=
EXTT3=
EXTT4=
EXTT5=
EXTT6=
EXTT7=
EXTT8=
EXTT9=
EXTT10=
EXTT11=
EXTT12=
EXTT13=
EXTT14=
EXTT15=
EXTT16=
EXTT17=
EXTT18=
EXTT19=
EXTT20=
EXTT21=
EXTT22=
EXTT23=
EXTT24=
EXTT25=
PLAYORDER=
